<svg width="24" height="30" viewBox="0 0 24 30" fill="none" xmlns="http://www.w3.org/2000/svg">
<path d="M4.66671 1.6665H22.6667V28.3332H4.66671C3.78265 28.3332 2.93481 27.982 2.30968 27.3569C1.68456 26.7317 1.33337 25.8839 1.33337 24.9998V4.99984C1.33337 4.11578 1.68456 3.26794 2.30968 2.64281C2.93481 2.01769 3.78265 1.6665 4.66671 1.6665V1.6665Z" stroke="white" stroke-width="2" stroke-linecap="round" stroke-linejoin="round"/>
<path d="M12 16.6665H16.5" stroke="white" stroke-width="2" stroke-linecap="round" stroke-linejoin="round"/>
<path d="M14.25 7.04164C14.4489 6.80957 14.7187 6.6792 15 6.6792C15.1393 6.6792 15.2772 6.71121 15.4059 6.77339C15.5346 6.83558 15.6515 6.92673 15.75 7.04164C15.8485 7.15654 15.9266 7.29296 15.9799 7.44309C16.0332 7.59322 16.0607 7.75413 16.0607 7.91664C16.0607 8.07914 16.0332 8.24005 15.9799 8.39018C15.9266 8.54032 15.8485 8.67673 15.75 8.79164L9.5 16.0833L7.5 16.6666L8 14.3333L14.25 7.04164Z" stroke="white" stroke-width="2" stroke-linecap="round" stroke-linejoin="round"/>
<path d="M1.33337 24.9998C1.33337 24.1158 1.68456 23.2679 2.30968 22.6428C2.93481 22.0177 3.78265 21.6665 4.66671 21.6665H22.6667" stroke="white" stroke-width="2" stroke-linecap="round" stroke-linejoin="round"/>
</svg>
