<svg width="48" height="48" viewBox="0 0 48 48" fill="none" xmlns="http://www.w3.org/2000/svg">
<circle cx="24" cy="24" r="24" fill="#2D9CDB"/>
<path d="M26.8792 22.1678C28.4362 23.7248 28.4362 26.2492 26.8792 27.8062C25.3222 29.3633 22.7977 29.3633 21.2407 27.8062C19.6837 26.2492 19.6837 23.7248 21.2407 22.1678C22.7977 20.6107 25.3222 20.6107 26.8792 22.1678" stroke="white" stroke-width="1.5" stroke-linecap="round" stroke-linejoin="round"/>
<path d="M33 21V30C33 31.105 32.105 32 31 32H17C15.895 32 15 31.105 15 30V21C15 19.895 15.895 19 17 19H19L20.462 16.496C20.641 16.189 20.97 16 21.326 16H26.63C26.981 16 27.306 16.184 27.487 16.484L29 19H31C32.105 19 33 19.895 33 21Z" stroke="white" stroke-width="1.5" stroke-linecap="round" stroke-linejoin="round"/>
<path d="M31 14.5C32.3807 14.5 33.5 13.3807 33.5 12C33.5 10.6193 32.3807 9.5 31 9.5C29.6193 9.5 28.5 10.6193 28.5 12C28.5 13.3807 29.6193 14.5 31 14.5Z" stroke="white" stroke-linecap="round" stroke-linejoin="round"/>
<path d="M31 13V12" stroke="white" stroke-linecap="round" stroke-linejoin="round"/>
<path d="M31 11H31.0025" stroke="white" stroke-linecap="round" stroke-linejoin="round"/>
</svg>
