<svg width="32" height="32" viewBox="0 0 32 32" fill="none" xmlns="http://www.w3.org/2000/svg">
<path d="M6 6H10.2857L12.4286 8.70588H19.5714L21.7143 6H26V29H6V6Z" fill="#04BF58"/>
<path d="M21.333 5.33325H23.9997C24.7069 5.33325 25.3852 5.6142 25.8853 6.1143C26.3854 6.6144 26.6663 7.29267 26.6663 7.99992V26.6666C26.6663 27.3738 26.3854 28.0521 25.8853 28.5522C25.3852 29.0523 24.7069 29.3333 23.9997 29.3333H7.99967C7.29243 29.3333 6.61415 29.0523 6.11406 28.5522C5.61396 28.0521 5.33301 27.3738 5.33301 26.6666V7.99992C5.33301 7.29267 5.61396 6.6144 6.11406 6.1143C6.61415 5.6142 7.29243 5.33325 7.99967 5.33325H10.6663" stroke="#774FD1" stroke-width="2" stroke-linecap="round" stroke-linejoin="round"/>
<path d="M20.0003 2.66675H12.0003C11.2639 2.66675 10.667 3.2637 10.667 4.00008V6.66675C10.667 7.40313 11.2639 8.00008 12.0003 8.00008H20.0003C20.7367 8.00008 21.3337 7.40313 21.3337 6.66675V4.00008C21.3337 3.2637 20.7367 2.66675 20.0003 2.66675Z" stroke="#774FD1" stroke-width="2" stroke-linecap="round" stroke-linejoin="round"/>
<path d="M12.6665 13H23.4998" stroke="#774FD1" stroke-width="2" stroke-linecap="round" stroke-linejoin="round"/>
<path d="M12.6665 18H23.4998" stroke="#774FD1" stroke-width="2" stroke-linecap="round" stroke-linejoin="round"/>
<path d="M12.6665 23H23.4998" stroke="#774FD1" stroke-width="2" stroke-linecap="round" stroke-linejoin="round"/>
<path d="M8.5 13H8.50833" stroke="#774FD1" stroke-width="2" stroke-linecap="round" stroke-linejoin="round"/>
<path d="M8.5 18H8.50833" stroke="#774FD1" stroke-width="2" stroke-linecap="round" stroke-linejoin="round"/>
<path d="M8.5 23H8.50833" stroke="#774FD1" stroke-width="2" stroke-linecap="round" stroke-linejoin="round"/>
</svg>
