<svg width="41" height="41" viewBox="0 0 41 41" fill="none" xmlns="http://www.w3.org/2000/svg">
<path d="M24 7.13013H7.53228C6.64822 7.13013 5.80038 7.48132 5.17525 8.10644C4.55013 8.73156 4.19894 9.57941 4.19894 10.4635V33.7968C4.19894 34.6808 4.55013 35.5287 5.17525 36.1538C5.80038 36.7789 6.64822 37.1301 7.53228 37.1301H30.8656C31.7497 37.1301 32.5975 36.7789 33.2226 36.1538C33.8478 35.5287 34.1989 34.6808 34.1989 33.7968V20" stroke="white" stroke-width="2" stroke-linecap="round" stroke-linejoin="round"/>
<path d="M33.8969 4.61598C34.3477 4.22158 34.959 4 35.5965 4C36.2339 4 36.8453 4.22158 37.296 4.61598C37.7468 5.01039 38 5.54532 38 6.1031C38 6.66087 37.7468 7.1958 37.296 7.59021L26.5322 17.0086L22 18L23.133 14.0344L33.8969 4.61598Z" stroke="white" stroke-width="2" stroke-linecap="round" stroke-linejoin="round"/>
<line x1="8" y1="19.5" x2="20" y2="19.5" stroke="white"/>
<line x1="8" y1="24.5" x2="30" y2="24.5" stroke="white"/>
<path d="M15.6667 15.4666V14.7999C15.6667 14.4463 15.5262 14.1071 15.2762 13.8571C15.0261 13.607 14.687 13.4666 14.3333 13.4666H11.6667C11.3131 13.4666 10.9739 13.607 10.7239 13.8571C10.4738 14.1071 10.3333 14.4463 10.3333 14.7999V15.4666" stroke="white" stroke-linecap="round" stroke-linejoin="round"/>
<path d="M13 12.6667C13.7364 12.6667 14.3333 12.0697 14.3333 11.3333C14.3333 10.597 13.7364 10 13 10C12.2636 10 11.6667 10.597 11.6667 11.3333C11.6667 12.0697 12.2636 12.6667 13 12.6667Z" stroke="white" stroke-linecap="round" stroke-linejoin="round"/>
<line x1="8" y1="30.5" x2="30" y2="30.5" stroke="white"/>
</svg>
