<svg width="52" height="59" viewBox="0 0 52 59" fill="none" xmlns="http://www.w3.org/2000/svg">
<path d="M8.63201 11.7906C8.63201 11.7906 -1.01544 10.5853 0.0879066 22.693C0.945053 32.0798 13.6837 44.6076 13.6837 44.6076C13.6837 44.6076 21.7263 16.3196 8.63201 11.7906Z" fill="#561E15"/>
<path d="M44.7599 20.9944C44.7599 20.9944 45.5076 28.4088 44.4681 36.6176C43.2645 46.1048 43.693 57.2447 29.7325 57.9935C14.8328 58.7879 9.89961 42.0872 9.89961 42.0872C9.89961 42.0872 1.98467 40.6079 1.44668 35.2571C0.90868 29.8972 6.43454 29.5959 8.24002 31.1025C8.24002 31.1025 10.2826 11.1328 28.7112 11.1328C44.9696 11.1146 44.7599 20.9944 44.7599 20.9944Z" fill="#F8B1B9"/>
<path d="M27.2516 36.2343C27.2516 37.0469 26.5952 37.7133 25.7747 37.7133C24.9542 37.7133 24.2977 37.056 24.2977 36.2343C24.2977 35.4218 24.9542 34.7554 25.7747 34.7554C26.5952 34.7554 27.2516 35.4218 27.2516 36.2343Z" fill="#561E15"/>
<path d="M40.6012 36.2343C40.6012 37.0469 39.9448 37.7133 39.1243 37.7133C38.3037 37.7133 37.6473 37.056 37.6473 36.2343C37.6473 35.4218 38.3037 34.7554 39.1243 34.7554C39.9448 34.7554 40.6012 35.4218 40.6012 36.2343Z" fill="#561E15"/>
<path d="M19 30C19 30 22.5926 26.4873 27.2522 27.7839" stroke="#561E15" stroke-width="1.0274" stroke-miterlimit="10" stroke-linecap="round" stroke-linejoin="round"/>
<path d="M35.2857 29.7288C35.2857 29.7288 38.6505 26.6517 41.9605 30.021" stroke="#561E15" stroke-width="1.0274" stroke-miterlimit="10" stroke-linecap="round" stroke-linejoin="round"/>
<path d="M32.3312 32.3906C32.3312 32.3906 33.927 36.4722 35.2856 39.0106C36.6443 41.5491 32.6321 42.6813 32.6321 42.6813" stroke="#D66D78" stroke-width="0.7706" stroke-miterlimit="10" stroke-linecap="round" stroke-linejoin="round"/>
<path d="M26.9878 47.2466C26.9878 47.2466 30.2796 50.4425 34.5106 48.4884" stroke="#D66D78" stroke-width="0.7706" stroke-miterlimit="10" stroke-linecap="round" stroke-linejoin="round"/>
<path d="M12.4984 15.6255C12.4984 15.6255 20.8784 24.1722 16.2917 27.4411C11.1853 31.0844 10.392 36.2343 10.392 36.2343C10.392 36.2343 10.5014 34.4172 8.23091 31.0935C5.96038 27.7607 1.00901 15.9451 12.4984 15.6255Z" fill="#561E15"/>
<path d="M6.49999 10.5C7.38449 9.61429 6.49996 10.3283 14 9.5C15.2401 9.36303 20.9103 5.31317 20.5 6.50021C24.7219 4.66486 21.4863 5.37665 26 4.50007C29.5 4.50007 33.5 6.50021 36.4347 1.64184C37.4742 2.14405 38.1216 0.275844 37.4103 1.17982C39.5988 2.00162 43.6747 4.774 46 4.50007C48.3252 4.22614 46.9225 7.21545 48.5 8.94123C49.9681 10.5392 48.0456 10.8268 48 13C47.9271 15.9767 52.2098 14.9129 51.535 17.8166C50.532 22.1082 48.1976 26.0711 44.924 29.0204C45.8997 25.6785 44.1581 21.9713 41.4134 19.8255C38.6778 17.6705 35.1489 16.8213 31.693 16.4287C27.5532 15.9539 21.7629 20.8243 17.6413 21.5C14.5318 22.0113 11.6686 19.4693 8.57739 18.0632C1.72934 14.9586 3.8556 13.148 6.49999 10.5Z" fill="#561E15"/>
</svg>
