<svg width="50" height="50" viewBox="0 0 50 50" fill="none" xmlns="http://www.w3.org/2000/svg">
<rect width="50" height="50" rx="25" fill="#C4C4C4"/>
<path d="M25 3.6875C13.3992 3.6875 4 13.2266 4 25C4 36.7734 13.3992 46.3125 25 46.3125C36.6008 46.3125 46 36.7734 46 25C46 13.2266 36.6008 3.6875 25 3.6875ZM25 11.9375C29.1153 11.9375 32.4516 15.3234 32.4516 19.5C32.4516 23.6766 29.1153 27.0625 25 27.0625C20.8847 27.0625 17.5484 23.6766 17.5484 19.5C17.5484 15.3234 20.8847 11.9375 25 11.9375ZM25 41.5C20.0294 41.5 15.5754 39.2141 12.5948 35.6391C14.1867 32.5969 17.3028 30.5 20.9355 30.5C21.1387 30.5 21.3419 30.5344 21.5367 30.5945C22.6375 30.9555 23.7891 31.1875 25 31.1875C26.2109 31.1875 27.371 30.9555 28.4633 30.5945C28.6581 30.5344 28.8613 30.5 29.0645 30.5C32.6972 30.5 35.8133 32.5969 37.4052 35.6391C34.4246 39.2141 29.9706 41.5 25 41.5Z" fill="#774FD1"/>
</svg>
